<?xml version="1.0" encoding="UTF-8"?>
<svg id="_Слой_1" data-name="Слой 1" xmlns="http://www.w3.org/2000/svg" viewBox="100 123 400 263">
  <defs>
    <style>
      .cls-1 {
        fill: #000;
      }
    </style>
  </defs>
  <path class="cls-1" d="m389.14464,213.00971c-1.64214,0-2.6739.89757-2.6739,3.2401v17.75593c0,2.34253,1.03176,3.24092,2.6739,3.24092,1.6491,0,2.67799-.89839,2.67799-3.24092v-17.75593c0-2.34253-1.0289-3.2401-2.67799-3.2401Z"/>
  <path class="cls-1" d="m405.06042,154.85887v-4.93625c0-2.34253-.89185-3.10019-2.53726-3.10019h-2.44317v11.13662h2.44317c1.64542,0,2.53726-.75766,2.53726-3.10019Z"/>
  <polygon class="cls-1" points="357.57737 152.2267 362.55453 152.2267 360.06759 135.59663 357.57737 152.2267"/>
  <path class="cls-1" d="m370.44532,213.38527h-2.44644v11.13335h2.44644c1.64214,0,2.53072-.75439,2.53072-3.09692v-4.93625c0-2.34907-.88857-3.10019-2.53072-3.10019Z"/>
  <path class="cls-1" d="m383.48183,173.5541c-1.64869,0-2.67799.89185-2.67799,3.24092v17.74856c0,2.35644,1.02931,3.24092,2.67799,3.24092,1.64214,0,2.67431-.88448,2.67431-3.24092v-17.74856c0-2.34907-1.03217-3.24092-2.67431-3.24092Z"/>
  <path class="cls-1" d="m479.85074,123.19751h-254.37954c-1.27722,0-2.43662.73721-2.97991,1.9007l-119.0304,255.26771c-1.2404,2.65099,1.35045,5.47626,4.10495,4.48051l373.41117-135.91166c1.29686-.4762,2.16498-1.70924,2.16498-3.09037v-119.3585c0-1.81642-1.4785-3.28838-3.29124-3.28838Zm-27.2635,6.57921h5.1678v32.87722h-5.1678v-32.87722Zm-.60016,39.45561h5.17107v12.3533h2.44685c5.15757,0,7.69811,2.86209,7.69811,8.12317v4.27677c0,5.26517-2.54053,8.12726-7.69811,8.12726h-7.61792v-32.88049Zm-17.67492-39.45561h5.17107v12.34594h2.4399c5.16453,0,7.70506,2.87273,7.70506,8.13053v4.26941c0,5.26598-2.54053,8.13135-7.70506,8.13135h-7.61097v-32.87722Zm-20.42001,0h5.16453v14.08872h5.87146v-14.08872h5.26517v32.87722h-5.26517v-14.09608h-5.87146v14.09608h-5.16453v-32.87722Zm-18.97915,0h5.16821v12.34594h2.44276c5.16821,0,7.70179,2.87273,7.70179,8.13053v4.26941c0,5.26598-2.53358,8.13135-7.70179,8.13135h-7.61097v-32.87722Zm12.54108,53.30705v4.70551h-7.09509v9.61803h8.92501v4.70551h-14.09281v-32.88049h14.09281v4.6916h-8.92501v9.15984h7.09509Zm-35.39362-25.07561c2.3458,0,3.09283-.33792,3.18692-3.3882l.84766-24.84324h14.61237v32.87722h-5.26517v-28.17907h-4.51078l-.56293,19.86363c-.18819,6.01301-2.34948,8.36208-7.51401,8.36208h-.79407v-4.69242Zm19.26347,19.1166v17.0989c0,5.2578-2.76841,8.26717-7.84211,8.26717-5.07043,0-7.84579-3.00937-7.84579-8.26717v-17.0989c0-5.26189,2.77536-8.26799,7.84579-8.26799,5.07371,0,7.84211,3.0061,7.84211,8.26799Zm-146.20021-14.47082h-5.25862v-14.09608h-5.87146v14.09608h-5.17107v-32.87722h5.17107v14.08872h5.87146v-14.08872h5.25862v32.87722Zm16.14324,0l-.89144-5.96637h-6.3407l-.89512,5.96637h-4.74192l5.26148-32.87722h7.56106l5.26148,32.87722h-5.21485Zm27.0389,4.41341h-5.02707v-4.41341h-13.5262v-32.87722h5.16453v28.1848h5.87146v-28.1848h5.25862v28.27562h2.25866v9.01501Zm19.95731-4.41341h-4.65478v-23.15855l-2.11507,8.08716-4.31973,15.07139h-5.3118v-32.87722h4.60446v20.80539l1.88024-7.23296,4.22604-13.57243h5.69063v32.87722Zm19.50853-7.89243c0,5.26435-2.77127,8.26717-7.84579,8.26717-5.07371,0-7.84538-3.00282-7.84538-8.26717v-17.0989c0-5.25862,2.77168-8.26144,7.84538-8.26144,5.07452,0,7.84579,3.00282,7.84579,8.26144v17.0989Zm3.86439-24.98479h5.17107v14.08872h5.86819v-14.08872h5.26189v32.87722h-5.26189v-14.09608h-5.86819v14.09608h-5.17107v-32.87722Zm21.4084,72.33611h-5.26189v-28.18889h-5.87473v28.18889h-5.16125v-32.88049h16.29788v32.88049Zm2.98278-39.45888h-4.7456l5.25821-32.87722h7.5676l5.25821,32.87722h-5.21812l-.88776-5.96637h-6.34438l-.88816,5.96637Zm6.30715,39.45888h-5.1678v-32.88049h7.6077c5.1678,0,7.70833,2.86209,7.70833,8.12317v4.27677c0,5.25862-2.54053,8.12726-7.70833,8.12726h-2.4399v12.3533Zm15.81186,18.97178c0,5.26844-2.53685,8.13053-7.70138,8.13053h-2.44317v12.35985h-5.17148v-32.88704h7.61465c5.16453,0,7.70138,2.86209,7.70138,8.12071v4.27595Zm18.84169,12.5914c0,5.26108-2.76841,8.26799-7.84252,8.26799-5.07043,0-7.84211-3.00691-7.84211-8.26799v-17.09563c0-5.26108,2.77168-8.27126,7.84211-8.27126,5.07411,0,7.84252,3.01019,7.84252,8.27126v17.09563Zm18.99224-13.90135h-4.88634v-3.52566c0-2.34253-1.03258-3.24092-2.68454-3.24092-1.63887,0-2.67104.89839-2.67104,3.24092v17.7592c0,2.34171,1.03217,3.19346,2.67104,3.19346,1.65196,0,2.68454-.85175,2.68454-3.19346v-4.69897h4.88634v4.36677c0,5.26108-2.63463,8.26799-7.70833,8.26799-5.07043,0-7.70506-3.00691-7.70506-8.26799v-17.09563c0-5.26108,2.63463-8.27126,7.70506-8.27126,5.07371,0,7.70833,3.01019,7.70833,8.27126v3.19428Zm2.17807-17.66183h-5.1678v-32.88049h5.1678v14.32682l6.76003-14.32682h5.16453l-7.18223,14.64919,7.18223,18.2313h-5.30199l-5.02707-13.10441-1.5955,3.00282v10.10159Zm16.72007,17.66183h-4.88634v-3.52566c0-2.34253-1.03544-3.24092-2.67431-3.24092-1.64214,0-2.68086.89839-2.68086,3.24092v17.7592c0,2.34171,1.03871,3.19346,2.68086,3.19346,1.63887,0,2.67431-.85175,2.67431-3.19346v-4.69897h4.88634v4.36677c0,5.26108-2.62726,8.26799-7.70465,8.26799-5.07084,0-7.70138-3.00691-7.70138-8.26799v-17.09563c0-5.26108,2.63054-8.27126,7.70138-8.27126,5.07739,0,7.70465,3.01019,7.70465,8.27126v3.19428Zm-2.14125-45.85072v-4.6916h15.96896v4.6916h-5.40222v28.18889h-5.16453v-28.18889h-5.40222Zm22.21598,67.65105h-4.64824v-23.16101l-2.11466,8.07653-4.32341,15.08448h-5.30158v-32.88704h4.59792v20.81193l1.87656-7.23868,4.233-13.57325h5.68041v32.88704Zm20.47401,0h-4.64865v-23.16101l-2.11138,8.07653-4.32668,15.08448h-5.30526v-32.88704h4.60487v20.81193l1.87697-7.23868,4.22604-13.57325h5.68409v32.88704Zm0-39.46216h-5.16125v-32.88377h5.16125v32.88377Zm.5662-67.63796h-8.92501v9.15247h7.09509v4.70551h-7.09509v9.62867h8.92501v4.69242h-14.08954v-32.87722h14.08954v4.69815Z"/>
  <path class="cls-1" d="m444.45712,154.85887v-4.93625c0-2.34253-.89185-3.10019-2.53399-3.10019h-2.43949v11.13662h2.43949c1.64214,0,2.53399-.75766,2.53399-3.10019Z"/>
  <path class="cls-1" d="m462.13286,194.31448v-4.9297c0-2.34989-.88857-3.10019-2.53072-3.10019h-2.44317v11.12272h2.44317c1.64214,0,2.53072-.74375,2.53072-3.09283Z"/>
  <path class="cls-1" d="m367.31445,181.96118v-4.9297c0-2.34989-.89144-3.10673-2.54053-3.10673h-2.43949v11.13662h2.43949c1.6491,0,2.54053-.75111,2.54053-3.10019Z"/>
  <path class="cls-1" d="m319.9255,134.09931c-1.64582,0-2.67104.89103-2.67104,3.24092v17.74856c0,2.34907,1.02521,3.24747,2.67104,3.24747,1.6491,0,2.67758-.89839,2.67758-3.24747v-17.74856c0-2.34989-1.02849-3.24092-2.67758-3.24092Z"/>
  <polygon class="cls-1" points="254.69594 152.2267 259.67228 152.2267 257.18247 135.59663 254.69594 152.2267"/>
</svg>